<?xml version="1.0" encoding="UTF-8" standalone="no"?>
<!-- Created with Inkscape (http://www.inkscape.org/) -->

<svg width="47.379635mm" height="68.452301mm" viewBox="0 0 47.379635 68.452301" version="1.1" id="svg1" xml:space="preserve"
  xmlns:inkscape="http://www.inkscape.org/namespaces/inkscape"
  xmlns:sodipodi="http://sodipodi.sourceforge.net/DTD/sodipodi-0.dtd"
  xmlns="http://www.w3.org/2000/svg"
  xmlns:svg="http://www.w3.org/2000/svg">
  <sodipodi:namedview id="namedview1" borderopacity="0.25" inkscape:showpageshadow="2" inkscape:pageopacity="0.0" inkscape:pagecheckerboard="0" inkscape:deskcolor="#d1d1d1" inkscape:document-units="mm" />
  <defs id="defs1" />
  <g inkscape:label="Layer 1" inkscape:groupmode="layer" id="layer1" transform="translate(-1.6177225,-0.77450794)">
    <path style="fill:currentColor" d="m 31.262319,68.988386 c -1.15201,-0.24381 -3.94857,-1.78611 -4.54775,-2.50807 -0.26099,-0.31448 -0.24188,-0.83596 0.0946,-2.58075 0.95078,-4.93072 0.6708,-6.02309 -1.54374,-6.02309 -1.99976,0 -2.09518,0.3468 -1.25183,4.5495 0.78647,3.9192 0.8715,3.69285 -1.91954,5.10951 -3.38676,1.71904 -8.21578,1.60876 -8.21578,-0.18762 0,-0.38191 -0.25476,-0.97256 -0.56613,-1.31257 -1.83575,-2.00459 -2.93614,-6.16471 -2.48648,-9.40034 0.3762,-2.70701 1.22229,-4.54066 4.33726,-9.39969 0.96999,-1.51309 0.96999,-1.51309 0.18312,-1.92 -0.55297,-0.28595 -0.86981,-0.71492 -1.06588,-1.44308 -0.25937,-0.9632 -0.43909,-1.11367 -2.55142,-2.13609 -3.0540301,-1.47824 -4.3298701,-2.79635 -5.8252801,-6.01832 -0.6505,-1.40154 -1.60625,-3.01704 -2.1238799,-3.58999 -2.89014001,-3.199042 -2.88044001,-11.668711 0.0169,-14.732554 0.4816399,-0.509323 1.4290999,-2.095312 2.1054699,-3.52442 1.40055,-2.959221 2.29196,-4.3313475 4.2315001,-6.5134585 0.78408,-0.882138 1.55771,-2.0906402 1.82034,-2.8435792 0.82199,-2.356551 4.45413,-4.33573903 6.16376,-3.358692 0.89801,0.513209 1.04495,0.519494 3.77154,0.161302 2.27357,-0.298679 3.43502,-0.313757 5.84712,-0.07591 2.59993,0.25637 3.09429,0.241576 3.62871,-0.108594 1.8507,-1.21262803 6.22386,0.854835 6.95252,3.28689 0.19572,0.653261 0.92234,1.723046 1.85178,2.7263192 2.03112,2.192479 2.97931,3.6300915 4.36874,6.6237025 0.63693,1.372311 1.57308,2.958019 2.08033,3.523796 3.01379,3.361526 3.20478,11.428641 0.3407,14.390147 -0.49257,0.50932 -1.5526,2.29526 -2.35563,3.96875 -1.62836,3.39346 -2.82502,4.63799 -5.78328,6.01457 -1.30663,0.60803 -1.61411,0.89855 -2.22143,2.09889 -0.41488,0.81999 -0.95125,1.4786 -1.30369,1.6008 -0.59148,0.20507 -0.58295,0.23432 0.69839,2.39438 4.53317,7.6419 5.13065,19.11219 0.99554,19.11219 -0.41503,0 -0.43743,0.0877 -0.17154,0.67123 0.60025,1.31741 -2.43135,2.10592 -5.55497,1.44484 z m 4.10216,-0.69242 c 0.47863,-0.12833 0.57423,-0.32659 0.52917,-1.09746 -0.0495,-0.84635 0.0272,-0.9628 0.76326,-1.15946 3.93292,-1.05078 2.76873,-11.75725 -2.05795,-18.92586 -0.97315,-1.44533 -0.96746,-2.15115 0.0201,-2.49542 0.54126,-0.18869 0.94623,-0.64876 1.38555,-1.57411 0.55788,-1.17507 0.81217,-1.3984 2.51046,-2.20492 2.85276,-1.35477 3.87395,-2.42593 5.42614,-5.69169 0.7327,-1.54157 1.73212,-3.21957 2.22094,-3.7289 2.57977,-2.687966 2.55832,-10.548784 -0.0365,-13.387557 -0.51894,-0.567728 -1.5859,-2.352087 -2.37101,-3.965243 -1.39659,-2.86952 -3.29295,-5.6675155 -4.73675,-6.9888635 -0.39752,-0.363802 -0.99365,-1.2698522 -1.32473,-2.0134442 -1.10546,-2.482847 -4.03904,-4.12096503 -5.78489,-3.2303 -0.98468,0.502345 -1.23298,0.517868 -3.85272,0.240852 -2.1197,-0.22414 -3.58641,-0.218294 -6.03527,0.02406 -2.8924,0.286247 -3.33268,0.273597 -4.15688,-0.119435 -1.65573,-0.789564 -4.08063,0.665719 -5.29524,3.177896 -0.40513,0.837923 -1.29436,2.1783412 -1.97608,2.9787062 -2.0824401,2.4448905 -2.5739901,3.1972875 -4.0886601,6.2584325 -0.80313,1.623128 -1.82223,3.363426 -2.26467,3.86733 -2.5075899,2.855991 -2.3526799,10.442287 0.27138,13.289857 0.40229,0.43657 1.3392,2.06704 2.08201,3.62328 1.52392,3.1927 2.73177,4.48824 5.2696801,5.65226 2.73391,1.25391 2.75408,1.2694 3.05496,2.3462 0.1985,0.71038 0.53998,1.17638 1.08102,1.4752 1.16431,0.64304 1.09401,1.25499 -0.40548,3.52927 -4.89711,7.42747 -5.40815,12.84205 -1.61932,17.15728 0.47589,0.54201 0.83129,1.24077 0.83129,1.63442 0,1.46028 4.00956,1.30724 7.07566,-0.27006 1.05609,-0.54329 1.92017,-1.01626 1.92017,-1.05105 0,-0.0348 -0.16955,-0.8747 -0.37678,-1.86648 -1.20604,-5.77184 -0.9535,-6.69803 1.8263,-6.69803 2.86758,0 3.53835,1.92555 2.38098,6.83497 -0.46623,1.9777 -0.48368,1.93885 1.41617,3.15417 1.96971,1.26001 4.41595,1.73399 6.3177,1.2241 z m -20.28741,-4.45763 c -1.26645,-1.34807 -0.16962,-5.21733 1.52601,-5.38331 1.06001,-0.10375 1.1732,0.91986 0.29259,2.64599 -0.37551,0.73606 -0.50328,1.3426 -0.39591,1.87942 0.28408,1.42041 -0.46812,1.874 -1.42269,0.8579 z m 0.59705,-1.00777 c -0.0633,-0.33119 0.13179,-1.22857 0.43357,-1.99417 0.62455,-1.58451 0.63458,-1.637 0.31282,-1.637 -0.62531,0 -1.42135,3.54627 -0.91068,4.05695 0.27036,0.27036 0.28842,0.22356 0.16429,-0.42578 z m 19.12503,0.53602 c -0.0533,-0.1819 -0.36424,-1.08164 -0.69104,-1.99941 -0.60941,-1.71147 -0.48676,-2.41531 0.36402,-2.08883 0.45045,0.17285 1.49882,2.80802 1.49882,3.76743 0,0.69979 -0.98208,0.96866 -1.1718,0.32081 z m 0.64263,-0.59531 c 0,-0.0728 -0.0595,-0.1323 -0.13229,-0.1323 -0.0728,0 -0.13229,0.0595 -0.13229,0.1323 0,0.0728 0.0595,0.13229 0.13229,0.13229 0.0728,0 0.13229,-0.0595 0.13229,-0.13229 z" id="path1" />
  </g>
</svg>
